<svg width="24" height="24" viewBox="0 0 24 24" fill="none" xmlns="http://www.w3.org/2000/svg">
<path d="M3.07724 12.5902C2.92102 12.4337 2.83325 12.2214 2.83325 12C2.83325 11.7786 2.92102 11.5663 3.07724 11.4098L8.07729 6.40101C8.23446 6.24894 8.44497 6.1648 8.66347 6.1667C8.88196 6.1686 9.09098 6.2564 9.24549 6.41118C9.39999 6.56595 9.48764 6.77533 9.48953 6.99421C9.49143 7.21309 9.40744 7.42397 9.25564 7.58141L5.6781 11.1652H20.3332C20.5543 11.1652 20.7662 11.2532 20.9225 11.4097C21.0788 11.5663 21.1666 11.7786 21.1666 12C21.1666 12.2214 21.0788 12.4337 20.9225 12.5903C20.7662 12.7468 20.5543 12.8348 20.3332 12.8348H5.6781L9.25564 16.4186C9.40744 16.576 9.49143 16.7869 9.48953 17.0058C9.48764 17.2247 9.39999 17.434 9.24549 17.5888C9.09098 17.7436 8.88196 17.8314 8.66347 17.8333C8.44497 17.8352 8.23446 17.7511 8.07729 17.599L3.07724 12.5902Z" fill="white"/>
</svg>
