<svg width="24" height="24" viewBox="0 0 24 24" fill="none" xmlns="http://www.w3.org/2000/svg">
<path d="M20.9228 11.4098C21.079 11.5663 21.1667 11.7786 21.1667 12C21.1667 12.2214 21.079 12.4337 20.9228 12.5902L15.9227 17.599C15.7655 17.7511 15.555 17.8352 15.3365 17.8333C15.118 17.8314 14.909 17.7436 14.7545 17.5888C14.6 17.4341 14.5124 17.2247 14.5105 17.0058C14.5086 16.7869 14.5926 16.576 14.7444 16.4186L18.3219 12.8348L3.66676 12.8348C3.44574 12.8348 3.23377 12.7468 3.07749 12.5903C2.92121 12.4337 2.83341 12.2214 2.83341 12C2.83341 11.7786 2.92121 11.5663 3.07749 11.4097C3.23377 11.2532 3.44574 11.1652 3.66676 11.1652L18.3219 11.1652L14.7444 7.58141C14.5926 7.42397 14.5086 7.2131 14.5105 6.99422C14.5124 6.77533 14.6 6.56596 14.7545 6.41118C14.909 6.2564 15.118 6.1686 15.3365 6.1667C15.555 6.1648 15.7655 6.24894 15.9227 6.40101L20.9228 11.4098Z" fill="white"/>
</svg>
